<svg id="Layer_1" data-name="Layer 1" xmlns="http://www.w3.org/2000/svg" xmlns:xlink="http://www.w3.org/1999/xlink" viewBox="0 0 180 180">
  <defs>
    <linearGradient id="linear-gradient" x1="45.78" y1="84.05" x2="179.46" y2="84.05" gradientUnits="userSpaceOnUse">
      <stop offset="0" stop-color="#fadd06"/>
      <stop offset="0.21" stop-color="#fadd08"/>
      <stop offset="0.29" stop-color="#fade0f"/>
      <stop offset="0.35" stop-color="#fadf1b"/>
      <stop offset="0.39" stop-color="#fbe02c"/>
      <stop offset="0.43" stop-color="#fbe142"/>
      <stop offset="0.47" stop-color="#fbe35d"/>
      <stop offset="0.5" stop-color="#fce67d"/>
      <stop offset="0.5" stop-color="#fce67f"/>
      <stop offset="0.53" stop-color="#fde365"/>
      <stop offset="0.57" stop-color="#fddf49"/>
      <stop offset="0.61" stop-color="#fedd33"/>
      <stop offset="0.66" stop-color="#fedb21"/>
      <stop offset="0.72" stop-color="#ffd915"/>
      <stop offset="0.8" stop-color="#ffd80e"/>
      <stop offset="1" stop-color="#ffd80c"/>
    </linearGradient>
    <linearGradient id="linear-gradient-2" x1="0.5" y1="90.53" x2="125.43" y2="90.53" gradientTransform="translate(0.03 14.01)" gradientUnits="userSpaceOnUse">
      <stop offset="0" stop-color="#7d7d7d"/>
      <stop offset="0.27" stop-color="#7f7f7f" stop-opacity="0.98"/>
      <stop offset="0.37" stop-color="#888" stop-opacity="0.89"/>
      <stop offset="0.44" stop-color="#979797" stop-opacity="0.73"/>
      <stop offset="0.5" stop-color="#acacac" stop-opacity="0.51"/>
      <stop offset="0.5" stop-color="#adadad" stop-opacity="0.5"/>
      <stop offset="0.51" stop-color="#acacac" stop-opacity="0.52"/>
      <stop offset="0.55" stop-color="#a4a4a4" stop-opacity="0.7"/>
      <stop offset="0.61" stop-color="#9e9e9e" stop-opacity="0.83"/>
      <stop offset="0.68" stop-color="#999" stop-opacity="0.93"/>
      <stop offset="0.77" stop-color="#979797" stop-opacity="0.98"/>
      <stop offset="1" stop-color="#969696"/>
    </linearGradient>
  </defs>
  <g>
    <path d="M137.41,148.77a3.4,3.4,0,0,1-1.34-6.53,60.51,60.51,0,1,0-83.54-65.7,3.4,3.4,0,1,1-6.71-1.13,67.29,67.29,0,1,1,92.93,73.08A3.39,3.39,0,0,1,137.41,148.77Z" style="fill: url(#linear-gradient)"/>
    <g>
      <g>
        <path d="M25.2,88V108.4q0,6.31-3.36,9.67t-9.3,3.37a18.43,18.43,0,0,1-6.5-1.1,13.42,13.42,0,0,1-4.92-3.14L2.9,114a13.23,13.23,0,0,0,9.64,3.73q8.55,0,8.55-9.13v-2.95q-2.91,4.23-9,4.23-5.47,0-8.51-3.15t-3-9V88H4.69v9.55c0,2.83.69,5,2.07,6.44a7.56,7.56,0,0,0,5.78,2.2,8.41,8.41,0,0,0,6.27-2.33q2.28-2.33,2.28-6.93V88Z" style="fill: #97999b"/>
        <path d="M38.86,115.44a14.3,14.3,0,0,1-5.54-5.34,15.29,15.29,0,0,1,0-15.19,14.3,14.3,0,0,1,5.54-5.34,17.17,17.17,0,0,1,15.82,0,14.19,14.19,0,0,1,5.52,5.32,15.56,15.56,0,0,1,0,15.23,14.19,14.19,0,0,1-5.52,5.32,16.15,16.15,0,0,1-7.89,1.93A16.19,16.19,0,0,1,38.86,115.44Zm13.68-3.22a10.7,10.7,0,0,0,4-4,11.81,11.81,0,0,0,0-11.41,10.7,10.7,0,0,0-4-4,11.4,11.4,0,0,0-5.75-1.45A11.63,11.63,0,0,0,41,92.79a10.53,10.53,0,0,0-4.07,4,11.74,11.74,0,0,0,0,11.41,10.53,10.53,0,0,0,4.07,4,11.63,11.63,0,0,0,5.79,1.45A11.4,11.4,0,0,0,52.54,112.22Z" style="fill: #97999b"/>
        <path d="M92.79,88V117h-4v-4.11q-3,4.44-9.47,4.44a10.51,10.51,0,0,1-8.12-3.16q-2.93-3.15-2.92-9V88h4.15v17.11q0,4.2,2.07,6.39a7.44,7.44,0,0,0,5.69,2.2,8.28,8.28,0,0,0,6.19-2.32q2.28-2.32,2.28-6.89V88Z" style="fill: #97999b"/>
        <path d="M120.94,117l-6.27-8.93c-.77.06-1.38.08-1.82.08h-7.19V117h-4.15V88h11.34q5.64,0,8.88,2.7A9.16,9.16,0,0,1,125,98.1a9.67,9.67,0,0,1-1.66,5.73,9.42,9.42,0,0,1-4.73,3.45l6.89,9.76ZM118.74,103a5.9,5.9,0,0,0,2.08-4.86,5.84,5.84,0,0,0-2.08-4.83,9.37,9.37,0,0,0-6-1.68h-7.06v13.07h7.06A9.25,9.25,0,0,0,118.74,103Z" style="fill: #97999b"/>
      </g>
      <g>
        <path d="M25.2,88V108.4q0,6.31-3.36,9.67t-9.3,3.37a18.43,18.43,0,0,1-6.5-1.1,13.42,13.42,0,0,1-4.92-3.14L2.9,114a13.23,13.23,0,0,0,9.64,3.73q8.55,0,8.55-9.13v-2.95q-2.91,4.23-9,4.23-5.47,0-8.51-3.15t-3-9V88H4.69v9.55c0,2.83.69,5,2.07,6.44a7.56,7.56,0,0,0,5.78,2.2,8.41,8.41,0,0,0,6.27-2.33q2.28-2.33,2.28-6.93V88Z" style="fill: url(#linear-gradient-2)"/>
        <path d="M38.86,115.44a14.3,14.3,0,0,1-5.54-5.34,15.29,15.29,0,0,1,0-15.19,14.3,14.3,0,0,1,5.54-5.34,17.17,17.17,0,0,1,15.82,0,14.19,14.19,0,0,1,5.52,5.32,15.56,15.56,0,0,1,0,15.23,14.19,14.19,0,0,1-5.52,5.32,16.15,16.15,0,0,1-7.89,1.93A16.19,16.19,0,0,1,38.86,115.44Zm13.68-3.22a10.7,10.7,0,0,0,4-4,11.81,11.81,0,0,0,0-11.41,10.7,10.7,0,0,0-4-4,11.4,11.4,0,0,0-5.75-1.45A11.63,11.63,0,0,0,41,92.79a10.53,10.53,0,0,0-4.07,4,11.74,11.74,0,0,0,0,11.41,10.53,10.53,0,0,0,4.07,4,11.63,11.63,0,0,0,5.79,1.45A11.4,11.4,0,0,0,52.54,112.22Z" style="fill: url(#linear-gradient-2)"/>
        <path d="M92.79,88V117h-4v-4.11q-3,4.44-9.47,4.44a10.51,10.51,0,0,1-8.12-3.16q-2.93-3.15-2.92-9V88h4.15v17.11q0,4.2,2.07,6.39a7.44,7.44,0,0,0,5.69,2.2,8.28,8.28,0,0,0,6.19-2.32q2.28-2.32,2.28-6.89V88Z" style="fill: url(#linear-gradient-2)"/>
        <path d="M120.94,117l-6.27-8.93c-.77.06-1.38.08-1.82.08h-7.19V117h-4.15V88h11.34q5.64,0,8.88,2.7A9.16,9.16,0,0,1,125,98.1a9.67,9.67,0,0,1-1.66,5.73,9.42,9.42,0,0,1-4.73,3.45l6.89,9.76ZM118.74,103a5.9,5.9,0,0,0,2.08-4.86,5.84,5.84,0,0,0-2.08-4.83,9.37,9.37,0,0,0-6-1.68h-7.06v13.07h7.06A9.25,9.25,0,0,0,118.74,103Z" style="fill: url(#linear-gradient-2)"/>
      </g>
    </g>
    <g>
      <path d="M45.48,158.06A8.81,8.81,0,0,1,42.2,155l1.25-1.41a8.52,8.52,0,0,0,2.84,2.72,7.17,7.17,0,0,0,3.59.93,5.38,5.38,0,0,0,4.34-1.68q1.44-1.68,1.44-5.17V127.65H44.94v-1.91H57.77V150.4q0,4.36-2,6.56a7.54,7.54,0,0,1-5.9,2.2A9.06,9.06,0,0,1,45.48,158.06Z" style="fill: #97999b"/>
      <path d="M72.26,153.08a14.24,14.24,0,0,1-5.41-5.29,15.25,15.25,0,0,1,0-15,14.2,14.2,0,0,1,5.41-5.3,16.5,16.5,0,0,1,15.45,0,14.1,14.1,0,0,1,5.42,5.28,15.47,15.47,0,0,1,0,15.11,14.08,14.08,0,0,1-5.42,5.27,16.5,16.5,0,0,1-15.45,0Zm14.33-1.68a12.34,12.34,0,0,0,4.65-4.59,13.43,13.43,0,0,0,0-13.08,12.34,12.34,0,0,0-4.65-4.59,14,14,0,0,0-13.23,0,12.25,12.25,0,0,0-4.67,4.59,13.43,13.43,0,0,0,0,13.08,12.25,12.25,0,0,0,4.67,4.59,14,14,0,0,0,13.23,0Z" style="fill: #97999b"/>
      <path d="M124.47,142.26a7.08,7.08,0,0,1,1.64,4.86,6.64,6.64,0,0,1-2.7,5.69c-1.79,1.33-4.47,2-8,2h-13V125.74h12.12c3.16,0,5.61.64,7.37,1.93a6.41,6.41,0,0,1,2.64,5.5,6.72,6.72,0,0,1-1.31,4.2,7.2,7.2,0,0,1-3.55,2.44A8.07,8.07,0,0,1,124.47,142.26Zm-19.91-14.69v11.58h9.93a10,10,0,0,0,5.87-1.47,5.56,5.56,0,0,0,0-8.64,10,10,0,0,0-5.87-1.47Zm17.26,23.93a5.81,5.81,0,0,0,0-9.07A11.65,11.65,0,0,0,115.4,141H104.56v12H115.4Q119.63,153,121.82,151.5Z" style="fill: #97999b"/>
    </g>
  </g>
</svg>
